<?xml version="1.0" encoding="UTF-8" standalone="no"?>
<!-- Created with Inkscape (http://www.inkscape.org/) -->

<svg
   width="512"
   height="512"
   viewBox="0 0 512 512"
   version="1.1"
   id="svg5"
   inkscape:version="1.2.1 (9c6d41e, 2022-07-14)"
   sodipodi:docname="mmrc.svg"
   inkscape:export-filename="mmrc_1024x1024.png"
   inkscape:export-xdpi="192"
   inkscape:export-ydpi="192"
   xmlns:inkscape="http://www.inkscape.org/namespaces/inkscape"
   xmlns:sodipodi="http://sodipodi.sourceforge.net/DTD/sodipodi-0.dtd"
   xmlns:xlink="http://www.w3.org/1999/xlink"
   xmlns="http://www.w3.org/2000/svg"
   xmlns:svg="http://www.w3.org/2000/svg">
  <sodipodi:namedview
     id="namedview7"
     pagecolor="#ffffff"
     bordercolor="#000000"
     borderopacity="0.25"
     inkscape:showpageshadow="2"
     inkscape:pageopacity="0.0"
     inkscape:pagecheckerboard="0"
     inkscape:deskcolor="#d1d1d1"
     inkscape:document-units="px"
     showgrid="false"
     inkscape:zoom="1.873106"
     inkscape:cx="253.32256"
     inkscape:cy="301.63803"
     inkscape:window-width="1890"
     inkscape:window-height="1054"
     inkscape:window-x="2471"
     inkscape:window-y="362"
     inkscape:window-maximized="0"
     inkscape:current-layer="layer1" />
  <defs
     id="defs2">
    <color-profile
       name="_2CH-4K60444"
       xlink:href="file:///Library/ColorSync/Profiles/Displays/2CH%204K60444-71DC4696-8B94-43D1-AF39-5CB268AA75FB.icc"
       id="color-profile244" />
    <linearGradient
       id="linearGradient6783"
       inkscape:swatch="solid">
      <stop
         style="stop-color:#ffffff;stop-opacity:1;"
         offset="0"
         id="stop6781" />
    </linearGradient>
  </defs>
  <g
     inkscape:label="Layer 1"
     inkscape:groupmode="layer"
     id="layer1">
    <path
       id="path3060"
       style="color:#000000;display:inline;fill:#000000;stroke:none;fill-opacity:1;stroke-width:0;stroke-dasharray:none"
       d="M 17.484375 235.52148 C 16.825703 234.61617 16.187339 233.68735 15.652344 232.69336 C 15.015339 231.50984 14.477379 230.27228 14.064453 228.99805 C 13.651527 227.72381 13.36438 226.41282 13.228516 225.08594 C 13.092651 223.75905 13.108554 222.41569 13.302734 221.07422 C 13.32682 220.90441 13.404324 220.75223 13.433594 220.58398 L -48.779297 202.31641 L -52.494141 214.97266 L 17.484375 235.52148 z " />
    <path
       id="path3264"
       style="color:#000000;display:inline;fill:#000000;stroke:none;fill-opacity:1;stroke-width:0;stroke-dasharray:none"
       d="M 420.5332 353.87109 L 522.58008 383.83594 L 526.29688 371.17969 L 446.58008 347.77148 C 446.47744 347.8094 446.37814 347.85696 446.27539 347.89453 C 444.45961 348.55844 442.6261 349.1674 440.77734 349.72656 C 438.92859 350.28573 437.06352 350.79407 435.1875 351.25586 C 433.31148 351.71765 431.42491 352.13407 429.52734 352.50586 C 426.55262 353.08869 423.54284 353.4862 420.5332 353.87109 z " />
    <g
       id="path2215"
       style="stroke:none;fill:#000000;fill-opacity:1;stroke-width:0;stroke-dasharray:none">
      <path
         style="color:#000000;fill:#000000;stroke-width:0;stroke:none;fill-opacity:1;stroke-dasharray:none"
         d="M -69.216058,242.24271 571.14015,466.09137"
         id="path3291" />
      <path
         style="color:#000000;fill:#000000;stroke:none;fill-opacity:1;stroke-width:0;stroke-dasharray:none"
         d="m -66.667969,234.95312 -5.095703,14.57813 640.355472,223.84961 5.0957,-14.57813 z"
         id="path3293" />
    </g>
    <path
       id="path3258"
       style="display:inline;mix-blend-mode:normal;fill:#000000;fill-opacity:1;fill-rule:nonzero;stroke:none;stroke-width:0;stroke-dasharray:none;stroke-opacity:1"
       d="m 294.49219,129.11328 -3.90039,16.04102 v 176.60351 l 4.66992,18.04688 c 19.02372,4.64124 38.15232,8.80665 57.53125,11.74609 17.75355,2.66251 35.73329,4.29501 53.69726,3.58008 15.41267,-0.68367 30.95917,-3.18637 45.17579,-9.39453 7.48571,-3.26691 14.49416,-7.65077 20.59375,-13.09375 11.62384,-10.16258 20.5538,-23.42635 25.34961,-38.12305 4.93058,-14.92531 5.63204,-31.08328 2.84765,-46.50781 -3.18562,-17.87632 -10.71419,-34.76439 -20.56641,-49.9336 -1.70206,-2.56844 -3.37754,-5.15349 -4.97656,-7.7871 -9.47388,-14.98881 -21.89008,-28.18212 -36.62109,-38.09375 -15.14269,-10.26907 -32.45851,-17.05025 -50.27735,-20.96875 -17.81299,-3.95215 -36.13666,-5.20947 -54.3496,-4.94727 -13.1068,0.2193 -26.16852,1.27336 -39.17383,2.83203 z m -13.8125,206.99414 -3.2793,-12.66992 V 143.57422 l 3.04297,-12.51758 c -10.12617,1.5142 -20.22485,3.22154 -30.25586,5.22852 -18.94817,3.82055 -37.72952,8.37143 -56.39844,13.35742 l -2.68164,8.46484 v 141.21485 l 4.2207,12.51367 c 11.44587,3.55099 22.90045,7.07717 34.30665,10.74023 3.11281,1.00728 6.21272,2.06057 9.40625,2.78906 13.876,3.55854 27.74536,7.20085 41.63867,10.74219 z m -99.6211,-28.73828 -2.04492,-6.0625 V 156.23828 l 0.86524,-2.72851 c -14.31875,3.99007 -28.59695,8.12903 -42.82032,12.42578 -11.19901,3.39691 -22.36733,6.89389 -33.53906,10.3789 l -4.199218,7.95117 v 90.54493 l 3.904298,6.94531 c 9.20402,3.32343 18.45024,6.5326 27.72656,9.64062 16.63262,5.53551 33.36367,10.77561 50.10742,15.97266 z M 89.160156,276.5293 v -94.78125 l 0.623047,-1.17969 c -14.948908,4.6796 -29.894399,9.36998 -44.871094,13.96289 -8.301589,3.34639 -16.598142,7.16963 -23.4375,13.05664 -4.006361,3.49816 -7.408164,8.10199 -8.171875,13.48633 -0.776724,5.36591 1.298848,10.76733 4.53125,14.98633 4.518479,6.0808 10.694764,10.65729 16.970704,14.77734 11.005361,7.10423 22.915545,12.66339 34.912109,17.85938 6.425053,2.75187 12.920909,5.32623 19.443359,7.83203 z M 400.33594,163.40234 c 32.46533,1.041 47.93572,19.19829 55.21094,30.64649 30.9134,46.96514 1.09965,48.71419 -13.2129,48.12109 -14.76404,-0.45621 -21.62647,2.60562 -38.15234,-17.95117 -18.2743,-20.78647 -21.02889,-61.2809 -3.8457,-60.81641 z m 66.06836,97.97461 c 1.42335,-0.0518 2.81737,0.39477 4.00195,1.17774 2.66069,1.79218 4.11817,4.89267 4.74219,7.96093 0.76523,4.01576 0.29976,8.37982 -1.79102,11.93946 -1.22817,2.0994 -3.24575,3.90791 -5.70898,4.28515 -2.13364,0.38226 -4.34076,-0.47608 -5.87891,-1.95312 -2.50668,-2.35994 -3.65563,-5.83224 -3.94531,-9.19336 -0.27626,-3.85761 0.51351,-7.95783 2.91992,-11.06445 1.35535,-1.75504 3.39994,-3.07665 5.66016,-3.15235 z m -35.91211,4.81446 c 1.63894,-0.038 3.24648,0.56367 4.53125,1.5664 3.10923,2.46447 4.40616,6.52963 4.71484,10.35547 0.33657,4.40041 -0.55202,9.13661 -3.44531,12.59375 -1.77648,2.17154 -4.80788,3.45749 -7.56445,2.56445 -3.24001,-1.00483 -5.28863,-4.09585 -6.32032,-7.16992 -1.53582,-4.77974 -1.31997,-10.21279 0.96094,-14.72265 1.36571,-2.70132 3.94056,-5.1406 7.12305,-5.1875 z"
       sodipodi:nodetypes="ccccccccccccccccccccccccccccccccccccccccccccccccccccccccccccccccccccccc" />
  </g>
</svg>
