<?xml version="1.0" encoding="UTF-8" standalone="no"?>
<svg
   width="700pt"
   height="700pt"
   version="1.1"
   viewBox="0 0 700 700"
   id="svg1245"
   sodipodi:docname="connect.svg"
   inkscape:version="1.2.1 (9c6d41e, 2022-07-14)"
   xmlns:inkscape="http://www.inkscape.org/namespaces/inkscape"
   xmlns:sodipodi="http://sodipodi.sourceforge.net/DTD/sodipodi-0.dtd"
   xmlns="http://www.w3.org/2000/svg"
   xmlns:svg="http://www.w3.org/2000/svg">
  <defs
     id="defs1249" />
  <sodipodi:namedview
     id="namedview1247"
     pagecolor="#ffffff"
     bordercolor="#000000"
     borderopacity="0.25"
     inkscape:showpageshadow="2"
     inkscape:pageopacity="0.0"
     inkscape:pagecheckerboard="0"
     inkscape:deskcolor="#d1d1d1"
     inkscape:document-units="pt"
     showgrid="false"
     inkscape:zoom="1.5203571"
     inkscape:cx="466.66667"
     inkscape:cy="466.66667"
     inkscape:window-width="3008"
     inkscape:window-height="1639"
     inkscape:window-x="1728"
     inkscape:window-y="25"
     inkscape:window-maximized="1"
     inkscape:current-layer="svg1245" />
  <path
     id="path2311"
     style="stroke-width:1.39944"
     d="m 295.24414,285.11914 c -5.67214,0.15609 -11.27222,2.4642 -15.30072,6.48146 -18.59303,17.08868 -37.14818,34.21852 -55.72467,51.32518 -12.97167,-11.93679 -25.90429,-23.91711 -38.91112,-35.815 -4.3659,-3.80793 -10.2557,-5.61204 -16.00473,-5.38493 -5.48297,0.10651 -10.96185,2.13263 -14.98862,5.89835 -4.84875,4.42276 -9.50863,9.05214 -14.02717,13.81135 -7.01924,7.43201 -13.76622,15.40759 -19.93259,23.55982 -9.8401,12.98544 -18.60261,26.92368 -26.158768,41.40729 -2.089475,4.00082 -4.150011,8.16109 -6.046109,12.26656 -4.877155,10.55657 -9.031848,21.4634 -12.093002,32.6882 -1.584806,5.8366 -2.923521,11.91926 -3.853491,17.96347 -0.604221,3.93478 -1.062611,7.90979 -1.336682,11.92684 -0.701908,9.90374 -0.278801,20.13979 1.417513,29.94587 0.66419,3.89974 1.512727,7.64247 2.565633,11.47965 2.191896,7.93325 5.218231,15.63153 8.970698,22.95566 2.627452,5.1519 5.745653,10.34719 9.048468,15.12553 3.202996,4.66163 6.677716,9.08276 10.33434,13.42915 -19.322693,17.81859 -38.676736,35.60425 -57.967986,53.45628 -4.17883,4.07812 -6.486611,10.08487 -5.758258,15.91614 0.609839,6.06726 4.430022,11.49496 9.498948,14.74234 3.772808,2.49095 8.304166,3.68249 12.806509,3.65695 5.504583,0.0583 11.095638,-1.7231 15.264656,-5.38291 2.724408,-2.37163 5.305573,-4.89741 7.992495,-7.31175 16.621086,-15.31525 33.241076,-30.63169 49.862856,-45.94619 6.54504,4.65165 13.31831,8.9982 20.44197,12.71421 6.76189,3.55423 13.78968,6.60539 21.01311,9.09243 5.57155,1.92204 11.39873,3.53781 17.24721,4.78414 5.86481,1.25439 12.0317,2.16311 18.11998,2.70024 2.42225,0.21179 5.10931,0.3806 7.54492,0.47851 5.67519,0.22347 11.35439,0.14952 16.97881,-0.19267 7.57005,-0.46143 15.26222,-1.4547 22.72488,-2.83227 24.10924,-4.45222 47.34995,-13.19242 69.40309,-23.87936 14.7401,-7.15935 28.94873,-15.35165 42.40702,-24.66107 8.72352,-6.02578 17.19097,-12.57447 25.20886,-19.5108 3.01526,-2.71426 6.22557,-5.249 8.8959,-8.31767 2.97182,-3.58168 4.45049,-8.30159 4.18345,-12.93785 -0.15946,-4.77491 -2.27955,-9.41788 -5.73589,-12.70986 -2.49499,-2.45881 -5.1544,-4.7431 -7.69625,-7.15327 -10.50866,-9.68316 -21.01773,-19.36586 -31.52612,-29.04932 19.04261,-17.56538 38.116,-35.09265 57.12815,-52.68478 3.32245,-3.16686 5.51963,-7.53196 5.81384,-12.13575 0.11064,-1.17448 0.0944,-2.34868 -5.4e-4,-3.43534 -0.31486,-4.14668 -2.09805,-8.13292 -4.94457,-11.16074 -0.44041,-0.49586 -0.71114,-0.74142 -1.18798,-1.2119 -1.73391,-1.66283 -3.72486,-3.05611 -5.88312,-4.11172 -0.36082,-0.16789 -1.06534,-0.49113 -1.57226,-0.68945 -4.51206,-1.74656 -9.55289,-1.98792 -14.2694,-1.00901 -3.88509,0.7816 -7.48669,2.70434 -10.40318,5.37322 -14.68335,13.50417 -29.35031,27.03592 -44.02665,40.55173 -4.10354,3.78059 -8.20686,7.56143 -12.31054,11.34187 -25.52828,-23.52313 -51.0562,-47.04665 -76.58398,-70.57031 19.09066,-17.60926 38.21795,-35.17947 57.2767,-52.8229 3.5606,-3.45634 5.75853,-8.32762 5.73485,-13.31457 0.12986,-4.27754 -1.22885,-8.58577 -3.89854,-11.94382 -3.63651,-4.70628 -9.14242,-7.97856 -15.07036,-8.68842 -1.54714,-0.20588 -3.11228,-0.26546 -4.67156,-0.20881 z M 171.01758,352.7832 c 1.16335,0.0873 1.7695,1.25589 2.63714,1.88587 60.20055,55.47275 120.39974,110.94699 180.60114,166.41882 -10.24479,7.80455 -21.02486,14.90591 -32.26993,21.18479 -12.03489,6.71099 -24.52718,12.61446 -37.38948,17.56151 -18.14539,6.92922 -37.38269,11.57676 -56.88629,11.63431 -14.94624,0.0818 -29.94868,-2.72409 -43.70236,-8.6261 -13.89336,-5.8745 -26.38686,-14.76261 -37.12619,-25.30221 -8.42827,-8.28644 -15.79756,-17.74565 -21.08756,-28.34625 -5.78432,-11.42165 -8.98437,-24.1213 -9.38182,-36.9142 -0.58425,-16.36409 3.13702,-32.62383 9.05007,-47.8052 4.37501,-11.25704 9.94107,-22.0173 16.0427,-32.42726 8.20547,-13.91452 17.75357,-27.03911 28.50477,-39.09611 0.33513,-0.0554 0.66373,-0.2366 1.00781,-0.16797 z" />
  <path
     id="path1243"
     style="stroke-width:1.39944"
     d="m 637.95312,69.021484 c -5.92862,0.25111 -11.71486,2.805447 -15.8801,7.034713 -18.66116,17.193402 -37.32153,34.387653 -55.98318,51.580523 -8.8189,-6.30817 -18.13584,-11.95819 -28.02076,-16.43862 -5.5662,-2.53771 -11.20105,-4.72299 -17.05104,-6.56383 -5.66023,-1.79354 -11.40574,-3.23037 -17.28004,-4.32051 -5.553,-1.03091 -11.21977,-1.752777 -16.8962,-2.165322 -5.75176,-0.416612 -11.73198,-0.521494 -17.53383,-0.314389 -22.45421,0.81123 -44.68007,6.023161 -65.7755,13.736361 -15.47342,5.69088 -30.45567,12.55567 -44.95485,20.4227 -21.9739,11.97544 -42.61,26.49378 -60.93079,43.56272 -3.37853,3.31349 -5.56607,7.87349 -5.72233,12.63088 -0.27724,4.87447 1.30982,9.8724 4.60284,13.51446 2.35351,2.6263 5.12721,4.82672 7.65582,7.27624 70.39961,64.86748 140.78945,129.74593 211.20001,194.60129 3.84577,3.43693 8.92537,5.40844 14.068,5.61271 0.866,0.0514 2.01192,0.0595 2.9871,0.001 5.13533,-0.26791 10.21711,-2.19681 14.02979,-5.68833 4.05208,-3.64831 7.91973,-7.49725 11.73702,-11.39102 15.46901,-15.96154 28.9958,-33.70232 40.3704,-52.84447 7.27854,-12.25069 13.81841,-25.06694 19.15926,-38.33293 6.89434,-17.25029 11.65271,-35.4679 12.55963,-54.07732 0.20052,-4.07478 0.20884,-8.3052 0.0107,-12.36429 -0.0659,-1.55145 -0.2007,-3.34072 -0.32462,-4.88294 -0.24123,-2.67929 -0.55741,-5.35217 -0.964,-7.94503 -0.44563,-2.91565 -1.0618,-6.07813 -1.74777,-9.00665 -0.53517,-2.22779 -1.16795,-4.64363 -1.85268,-6.91356 -0.45376,-1.46905 -0.97968,-3.14655 -1.51782,-4.67835 -1.25411,-3.6619 -2.78341,-7.46364 -4.43531,-11.04626 -5.33389,-11.57317 -12.44487,-22.27923 -20.63867,-32.01562 -0.70187,-0.9146 -0.33744,-2.32582 0.6875,-2.82617 18.7834,-17.32232 37.59397,-34.60949 56.34662,-51.95926 3.59175,-3.455429 5.7865,-8.348146 5.78237,-13.350821 0.13366,-4.660081 -1.50232,-9.35722 -4.61337,-12.846171 -0.27221,-0.325116 -0.8036,-0.903743 -1.20703,-1.300782 -4.6636,-4.64079 -11.31906,-7.046406 -17.86719,-6.701172 z M 474.08984,139.47656 c 16.37762,0.0216 32.79653,3.56182 47.5461,10.73515 14.54438,7.03059 27.43615,17.2408 38.22754,29.21469 9.47417,10.59242 17.01907,23.0634 21.07564,36.73355 4.22534,14.05469 4.67092,29.08895 2.16432,43.50364 -2.76594,16.35664 -8.9768,31.92907 -16.60735,46.58836 -9.58299,18.51408 -21.40153,35.88601 -35.27148,51.45899 -0.87878,0.80364 -2.24873,0.39746 -2.88319,-0.51053 -60.52563,-55.77759 -121.06545,-111.5602 -181.59533,-167.34103 9.90032,-7.53425 20.28881,-14.42948 31.12959,-20.53567 11.75816,-6.63903 23.97487,-12.47215 36.53363,-17.43263 18.99107,-7.45591 39.17975,-12.47067 59.68053,-12.41452 z" />
</svg>
