<?xml version="1.0" encoding="UTF-8" standalone="no"?>
<svg
   width="700pt"
   height="700pt"
   version="1.1"
   viewBox="0 0 700 700"
   id="svg119"
   sodipodi:docname="button-automation.svg"
   inkscape:version="1.2.1 (9c6d41e, 2022-07-14)"
   xmlns:inkscape="http://www.inkscape.org/namespaces/inkscape"
   xmlns:sodipodi="http://sodipodi.sourceforge.net/DTD/sodipodi-0.dtd"
   xmlns="http://www.w3.org/2000/svg"
   xmlns:svg="http://www.w3.org/2000/svg">
  <sodipodi:namedview
     id="namedview121"
     pagecolor="#ffffff"
     bordercolor="#000000"
     borderopacity="0.25"
     inkscape:showpageshadow="2"
     inkscape:pageopacity="0.0"
     inkscape:pagecheckerboard="0"
     inkscape:deskcolor="#d1d1d1"
     inkscape:document-units="pt"
     showgrid="false"
     inkscape:zoom="1.5203571"
     inkscape:cx="466.66667"
     inkscape:cy="466.66667"
     inkscape:window-width="3008"
     inkscape:window-height="1639"
     inkscape:window-x="1728"
     inkscape:window-y="25"
     inkscape:window-maximized="1"
     inkscape:current-layer="svg119" />
  <defs
     id="defs59">
    <symbol
       id="s"
       overflow="visible">
      <path
         d="m28.859-1.7188c-1.4922 0.77344-3.043 1.3516-4.6562 1.7344-1.6055 0.39453-3.2891 0.59375-5.0469 0.59375-5.2305 0-9.375-1.457-12.438-4.375-3.0547-2.9258-4.5781-6.8945-4.5781-11.906 0-5.0195 1.5234-8.9883 4.5781-11.906 3.0625-2.9258 7.207-4.3906 12.438-4.3906 1.7578 0 3.4414 0.19922 5.0469 0.59375 1.6133 0.38672 3.1641 0.96484 4.6562 1.7344v6.5c-1.5-1.0195-2.9805-1.7695-4.4375-2.25-1.4609-0.47656-2.9961-0.71875-4.6094-0.71875-2.8867 0-5.1562 0.92969-6.8125 2.7812-1.6562 1.8555-2.4844 4.4062-2.4844 7.6562 0 3.2422 0.82812 5.7891 2.4844 7.6406 1.6562 1.8438 3.9258 2.7656 6.8125 2.7656 1.6133 0 3.1484-0.23438 4.6094-0.70312 1.457-0.47656 2.9375-1.2266 4.4375-2.25z"
         id="path2" />
    </symbol>
    <symbol
       id="h"
       overflow="visible">
      <path
         d="m21.125-17.141c-0.66797-0.3125-1.3281-0.53906-1.9844-0.6875-0.64844-0.14453-1.2969-0.21875-1.9531-0.21875-1.9375 0-3.4336 0.62109-4.4844 1.8594-1.043 1.2422-1.5625 3.0156-1.5625 5.3281v10.859h-7.5156v-23.562h7.5156v3.875c0.96875-1.5391 2.0781-2.6641 3.3281-3.375 1.2578-0.70703 2.7695-1.0625 4.5312-1.0625 0.25 0 0.51953 0.011719 0.8125 0.03125 0.28906 0.023438 0.71875 0.070312 1.2812 0.14062z"
         id="path5" />
    </symbol>
    <symbol
       id="a"
       overflow="visible">
      <path
         d="m27.141-11.844v2.1406h-17.609c0.17578 1.7734 0.8125 3.1016 1.9062 3.9844 1.0938 0.88672 2.625 1.3281 4.5938 1.3281 1.582 0 3.2031-0.23438 4.8594-0.70312 1.6641-0.47656 3.375-1.1914 5.125-2.1406v5.7969c-1.7812 0.67969-3.5625 1.1875-5.3438 1.5312s-3.5625 0.51562-5.3438 0.51562c-4.2617 0-7.5742-1.082-9.9375-3.25-2.3672-2.1641-3.5469-5.207-3.5469-9.125 0-3.832 1.1602-6.8477 3.4844-9.0469 2.3203-2.207 5.5156-3.3125 9.5781-3.3125 3.707 0 6.6719 1.1172 8.8906 3.3438 2.2266 2.2305 3.3438 5.2109 3.3438 8.9375zm-7.75-2.5c0-1.4258-0.41797-2.5781-1.25-3.4531-0.83594-0.88281-1.9219-1.3281-3.2656-1.3281-1.4609 0-2.6484 0.41406-3.5625 1.2344-0.90625 0.82422-1.4766 2.0078-1.7031 3.5469z"
         id="path8" />
    </symbol>
    <symbol
       id="g"
       overflow="visible">
      <path
         d="m14.172-10.594c-1.5625 0-2.7461 0.26562-3.5469 0.79688-0.79297 0.53125-1.1875 1.3125-1.1875 2.3438 0 0.96094 0.31641 1.7109 0.95312 2.25 0.64453 0.54297 1.5352 0.8125 2.6719 0.8125 1.4141 0 2.6094-0.50781 3.5781-1.5312 0.96875-1.0195 1.4531-2.2891 1.4531-3.8125v-0.85938zm11.516-2.8438v13.438h-7.5938v-3.4844c-1.0117 1.4297-2.1523 2.4688-3.4219 3.125-1.2617 0.64453-2.793 0.96875-4.5938 0.96875-2.4375 0-4.4219-0.70703-5.9531-2.125-1.5234-1.4258-2.2812-3.2734-2.2812-5.5469 0-2.7695 0.94531-4.7969 2.8438-6.0781 1.9062-1.2891 4.8945-1.9375 8.9688-1.9375h4.4375v-0.59375c0-1.1875-0.47656-2.0547-1.4219-2.6094-0.9375-0.5625-2.4023-0.84375-4.3906-0.84375-1.6172 0-3.1172 0.16406-4.5 0.48438-1.3867 0.32422-2.6797 0.80859-3.875 1.4531v-5.7344c1.6133-0.39453 3.2344-0.69141 4.8594-0.89062 1.6328-0.20703 3.2656-0.3125 4.8906-0.3125 4.25 0 7.3164 0.83984 9.2031 2.5156 1.8828 1.6797 2.8281 4.4023 2.8281 8.1719z"
         id="path11" />
    </symbol>
    <symbol
       id="f"
       overflow="visible">
      <path
         d="m11.844-30.25v6.6875h7.7656v5.3906h-7.7656v9.9844c0 1.0938 0.21094 1.8359 0.64062 2.2188 0.4375 0.38672 1.3008 0.57812 2.5938 0.57812h3.875v5.3906h-6.4531c-2.9805 0-5.0898-0.61719-6.3281-1.8594-1.2422-1.2383-1.8594-3.3477-1.8594-6.3281v-9.9844h-3.75v-5.3906h3.75v-6.6875z"
         id="path14" />
    </symbol>
    <symbol
       id="b"
       overflow="visible">
      <path
         d="m19.641-20.109v-12.625h7.5781v32.734h-7.5781v-3.4062c-1.0312 1.3867-2.1719 2.4023-3.4219 3.0469s-2.6953 0.96875-4.3281 0.96875c-2.9062 0-5.293-1.1484-7.1562-3.4531-1.8672-2.3125-2.7969-5.2852-2.7969-8.9219 0-3.625 0.92969-6.5859 2.7969-8.8906 1.8633-2.3125 4.25-3.4688 7.1562-3.4688 1.625 0 3.0625 0.32812 4.3125 0.98438 1.2578 0.64844 2.4062 1.6562 3.4375 3.0312zm-4.9531 15.25c1.6016 0 2.8281-0.58594 3.6719-1.7656 0.85156-1.1758 1.2812-2.8906 1.2812-5.1406 0-2.2383-0.42969-3.9453-1.2812-5.125-0.84375-1.1758-2.0703-1.7656-3.6719-1.7656-1.6055 0-2.8359 0.58984-3.6875 1.7656-0.84375 1.1797-1.2656 2.8867-1.2656 5.125 0 2.25 0.42188 3.9648 1.2656 5.1406 0.85156 1.1797 2.082 1.7656 3.6875 1.7656z"
         id="path17" />
    </symbol>
    <symbol
       id="e"
       overflow="visible">
      <path
         d="m16.156-4.8594c1.6133 0 2.8438-0.58594 3.6875-1.7656 0.85156-1.1758 1.2812-2.8906 1.2812-5.1406 0-2.2383-0.42969-3.9453-1.2812-5.125-0.84375-1.1758-2.0742-1.7656-3.6875-1.7656-1.6172 0-2.8555 0.59375-3.7188 1.7812-0.86719 1.1797-1.2969 2.8828-1.2969 5.1094 0 2.2422 0.42969 3.9531 1.2969 5.1406 0.86328 1.1797 2.1016 1.7656 3.7188 1.7656zm-5.0156-15.25c1.0391-1.375 2.1914-2.3828 3.4531-3.0312 1.2578-0.65625 2.7109-0.98438 4.3594-0.98438 2.9062 0 5.2891 1.1562 7.1562 3.4688 1.8633 2.3047 2.7969 5.2656 2.7969 8.8906 0 3.6367-0.93359 6.6094-2.7969 8.9219-1.8672 2.3047-4.25 3.4531-7.1562 3.4531-1.6484 0-3.1016-0.32422-4.3594-0.96875-1.2617-0.65625-2.4141-1.6719-3.4531-3.0469v3.4062h-7.5156v-32.734h7.5156z"
         id="path20" />
    </symbol>
    <symbol
       id="d"
       overflow="visible">
      <path
         d="m0.53125-23.562h7.5312l6.3281 15.984 5.375-15.984h7.5312l-9.9062 25.797c-0.99219 2.6133-2.1523 4.4414-3.4844 5.4844-1.3242 1.0508-3.0703 1.5781-5.2344 1.5781h-4.3594v-4.9375h2.3594c1.2695 0 2.1953-0.20312 2.7812-0.60938 0.58203-0.40625 1.0352-1.1367 1.3594-2.1875l0.20312-0.65625z"
         id="path23" />
    </symbol>
    <symbol
       id="c"
       overflow="visible">
      <path
         d="m3.9531-31.406h8.0938v31.406h-8.0938z"
         id="path26" />
    </symbol>
    <symbol
       id="r"
       overflow="visible">
      <path
         d="m22.656-22.828v6.1406c-1.0234-0.69531-2.0469-1.2109-3.0781-1.5469-1.0312-0.33203-2.1055-0.5-3.2188-0.5-2.1055 0-3.7422 0.61719-4.9062 1.8438-1.168 1.2188-1.75 2.9297-1.75 5.125 0 2.2109 0.58203 3.9297 1.75 5.1562 1.1641 1.2188 2.8008 1.8281 4.9062 1.8281 1.1758 0 2.2969-0.17188 3.3594-0.51562 1.0625-0.35156 2.0391-0.875 2.9375-1.5625v6.1719c-1.1797 0.42969-2.375 0.75-3.5938 0.96875-1.2109 0.21875-2.4219 0.32812-3.6406 0.32812-4.25 0-7.5781-1.0859-9.9844-3.2656-2.3984-2.1875-3.5938-5.2227-3.5938-9.1094 0-3.875 1.1953-6.8984 3.5938-9.0781 2.4062-2.1875 5.7344-3.2812 9.9844-3.2812 1.2266 0 2.4414 0.10938 3.6406 0.32812 1.1953 0.21875 2.3945 0.54297 3.5938 0.96875z"
         id="path29" />
    </symbol>
    <symbol
       id="q"
       overflow="visible">
      <path
         d="m14.828-18.734c-1.668 0-2.9375 0.60156-3.8125 1.7969-0.875 1.1992-1.3125 2.9219-1.3125 5.1719 0 2.2617 0.4375 3.9922 1.3125 5.1875 0.875 1.1992 2.1445 1.7969 3.8125 1.7969 1.6445 0 2.8984-0.59766 3.7656-1.7969 0.86328-1.1953 1.2969-2.9258 1.2969-5.1875 0-2.25-0.43359-3.9727-1.2969-5.1719-0.86719-1.1953-2.1211-1.7969-3.7656-1.7969zm0-5.3906c4.0508 0 7.2188 1.0938 9.5 3.2812s3.4219 5.2148 3.4219 9.0781c0 3.875-1.1406 6.9062-3.4219 9.0938s-5.4492 3.2812-9.5 3.2812c-4.0625 0-7.2461-1.0938-9.5469-3.2812-2.293-2.1875-3.4375-5.2188-3.4375-9.0938 0-3.8633 1.1445-6.8906 3.4375-9.0781 2.3008-2.1875 5.4844-3.2812 9.5469-3.2812z"
         id="path32" />
    </symbol>
    <symbol
       id="p"
       overflow="visible">
      <path
         d="m27.297-14.344v14.344h-7.5625v-10.984c0-2.0312-0.046875-3.4297-0.14062-4.2031-0.09375-0.76953-0.25-1.3359-0.46875-1.7031-0.30469-0.48828-0.71094-0.86719-1.2188-1.1406-0.5-0.28125-1.0703-0.42188-1.7031-0.42188-1.5742 0-2.8125 0.60938-3.7188 1.8281-0.89844 1.2109-1.3438 2.8867-1.3438 5.0312v11.594h-7.5156v-23.562h7.5156v3.4531c1.1445-1.375 2.3516-2.3828 3.625-3.0312 1.2812-0.65625 2.6914-0.98438 4.2344-0.98438 2.7188 0 4.7812 0.83594 6.1875 2.5 1.4062 1.668 2.1094 4.0938 2.1094 7.2812z"
         id="path35" />
    </symbol>
    <symbol
       id="o"
       overflow="visible">
      <path
         d="m22.016-22.828v5.7344c-1.6055-0.67578-3.1562-1.1797-4.6562-1.5156-1.5-0.34375-2.918-0.51562-4.25-0.51562-1.4375 0-2.5078 0.18359-3.2031 0.54688-0.6875 0.35547-1.0312 0.90234-1.0312 1.6406 0 0.60547 0.25781 1.0703 0.78125 1.3906 0.53125 0.32422 1.4766 0.5625 2.8438 0.71875l1.3125 0.1875c3.8633 0.49219 6.457 1.2969 7.7812 2.4219 1.332 1.125 2 2.8867 2 5.2812 0 2.5117-0.92969 4.3984-2.7812 5.6562-1.8438 1.2617-4.6055 1.8906-8.2812 1.8906-1.5547 0-3.1641-0.125-4.8281-0.375-1.6562-0.23828-3.3594-0.60156-5.1094-1.0938v-5.7188c1.5 0.73047 3.0352 1.2773 4.6094 1.6406 1.582 0.36719 3.1875 0.54688 4.8125 0.54688 1.4688 0 2.5703-0.20312 3.3125-0.60938 0.75-0.40625 1.125-1.0078 1.125-1.8125 0-0.67578-0.26172-1.1758-0.78125-1.5-0.51172-0.33203-1.5273-0.59375-3.0469-0.78125l-1.3281-0.15625c-3.3555-0.42578-5.7031-1.207-7.0469-2.3438-1.3438-1.1328-2.0156-2.8594-2.0156-5.1719 0-2.5 0.85156-4.3477 2.5625-5.5469 1.707-1.207 4.3281-1.8125 7.8594-1.8125 1.3945 0 2.8516 0.10547 4.375 0.3125 1.5312 0.21094 3.1914 0.53906 4.9844 0.98438z"
         id="path38" />
    </symbol>
    <symbol
       id="n"
       overflow="visible">
      <path
         d="m3.9531-31.406h21.859v6.125h-13.766v5.8438h12.938v6.125h-12.938v13.312h-8.0938z"
         id="path41" />
    </symbol>
    <symbol
       id="m"
       overflow="visible">
      <path
         d="m3.625-23.562h7.5156v23.562h-7.5156zm0-9.1719h7.5156v6.1406h-7.5156z"
         id="path44" />
    </symbol>
    <symbol
       id="l"
       overflow="visible">
      <path
         d="m3.625-32.734h7.5156v32.734h-7.5156z"
         id="path47" />
    </symbol>
    <symbol
       id="k"
       overflow="visible">
      <path
         d="m19.125-32.734v4.9531h-4.1719c-1.0625 0-1.8086 0.19531-2.2344 0.57812-0.41797 0.38672-0.625 1.0547-0.625 2v1.6406h6.4375v5.3906h-6.4375v18.172h-7.5312v-18.172h-3.7344v-5.3906h3.7344v-1.6406c0-2.5625 0.71094-4.457 2.1406-5.6875 1.4375-1.2266 3.6562-1.8438 6.6562-1.8438z"
         id="path50" />
    </symbol>
    <symbol
       id="j"
       overflow="visible">
      <path
         d="m27.297-14.344v14.344h-7.5625v-10.938c0-2.0625-0.046875-3.4766-0.14062-4.25-0.09375-0.76953-0.25-1.3359-0.46875-1.7031-0.30469-0.48828-0.71094-0.86719-1.2188-1.1406-0.5-0.28125-1.0703-0.42188-1.7031-0.42188-1.5742 0-2.8125 0.60938-3.7188 1.8281-0.89844 1.2109-1.3438 2.8867-1.3438 5.0312v11.594h-7.5156v-32.734h7.5156v12.625c1.1445-1.375 2.3516-2.3828 3.625-3.0312 1.2812-0.65625 2.6914-0.98438 4.2344-0.98438 2.7188 0 4.7812 0.83594 6.1875 2.5 1.4062 1.668 2.1094 4.0938 2.1094 7.2812z"
         id="path53" />
    </symbol>
    <symbol
       id="i"
       overflow="visible">
      <path
         d="m3.625-23.562h7.5156v23.141c0 3.1562-0.75781 5.5625-2.2656 7.2188-1.5117 1.6641-3.7031 2.5-6.5781 2.5h-3.7344v-4.9375h1.3125c1.4258 0 2.4062-0.32422 2.9375-0.96875 0.53906-0.64844 0.8125-1.918 0.8125-3.8125zm0-9.1719h7.5156v6.1406h-7.5156z"
         id="path56" />
    </symbol>
  </defs>
  <g
     id="g438"
     transform="matrix(1.1514358,0,0,1.1689279,-50.33535,24.45918)">
    <path
       d="m 88.867,447.31 c 1.5781,4.1953 6.1133,6.4805 10.426,5.2539 l 2.3242,-0.6875 v -0.004 c 5.9531,-1.543 12.223,-1.3711 18.078,0.50391 5.8555,1.8789 11.062,5.3789 15.008,10.094 2.1523,2.4141 4.3945,4.8242 6.7188,7.1523 4.4688,4.1758 7.6523,9.5391 9.1758,15.457 1.5273,5.9219 1.332,12.156 -0.5625,17.969 l -0.77344,2.3242 v 0.004 c -1.4688,4.207 0.51172,8.8359 4.5664,10.684 l 36.012,16.109 c 4.082,1.8086 8.8672,0.19922 11.027,-3.7031 l 1.1211,-2.0664 v -0.004 c 3.0977,-5.2852 7.6328,-9.5898 13.074,-12.41 5.4453,-2.8203 11.574,-4.043 17.684,-3.5273 h 9.8203 c 6.1367,-0.15234 12.191,1.4336 17.465,4.5742 5.274,3.1406 9.5547,7.707 12.344,13.176 l 1.1211,2.2383 c 1.4844,2.8633 4.4414,4.6602 7.668,4.6523 1.0273,0.008 2.0469,-0.16797 3.0156,-0.51562 l 36.789,-14.043 h -0.004 c 4.1992,-1.5781 6.4844,-6.1133 5.2578,-10.426 l -0.69141,-1.8086 c -1.5391,-5.9336 -1.3672,-12.18 0.49219,-18.016 1.8594,-5.8398 5.332,-11.035 10.02,-14.98 2.5,-2.1523 4.9102,-4.3945 7.1523,-6.7188 v -0.004 c 4.2188,-4.4805 9.6289,-7.668 15.59,-9.1953 5.9648,-1.5234 12.242,-1.3242 18.094,0.58203 l 2.3242,0.77344 h 0.004 c 4.1758,1.3555 8.7031,-0.64844 10.512,-4.6523 l 16.281,-36.012 c 1.8203,-4.0586 0.25391,-8.8359 -3.6172,-11.027 l -2.2383,-1.207 h -0.004 c -5.2734,-3.0898 -9.5586,-7.6094 -12.367,-13.039 -2.8047,-5.4297 -4.0117,-11.543 -3.4844,-17.633 v -9.8203 c -0.19531,-6.0703 1.3164,-12.07 4.3633,-17.324 3.0469,-5.254 7.5039,-9.5508 12.867,-12.398 l 2.2383,-1.1211 h 0.004 c 3.9648,-1.9688 5.7891,-6.625 4.2188,-10.77 l -13.957,-36.789 v 0.004 c -1.5781,-4.1992 -6.1094,-6.4844 -10.422,-5.2578 l -1.7266,0.60547 c -5.9492,1.5469 -12.219,1.3711 -18.074,-0.50391 -5.8594,-1.875 -11.062,-5.375 -15.008,-10.094 -2.1523,-2.5 -4.3945,-4.9102 -6.7188,-7.1523 -4.4688,-4.1719 -7.6523,-9.5352 -9.1758,-15.457 -1.5273,-5.9219 -1.332,-12.156 0.55859,-17.969 l 0.77344,-2.4141 h 0.004 c 1.418,-4.1797 -0.55469,-8.7539 -4.5664,-10.594 l -35.668,-16.113 c -4.082,-1.8086 -8.8672,-0.19922 -11.027,3.707 l -1.1211,2.0664 c -3.1094,5.3164 -7.6719,9.6289 -13.152,12.438 -5.4766,2.8086 -11.645,3.9922 -17.777,3.4141 h -9.9062 c -6.1484,0.15234 -12.211,-1.4414 -17.488,-4.5977 -5.277,-3.1563 -9.5508,-7.7461 -12.32,-13.234 l -1.1211,-2.1523 v -0.004 c -1.9141,-4.0742 -6.6445,-5.9922 -10.855,-4.3945 l -36.703,14.129 c -4.1953,1.5781 -6.4805,6.1133 -5.2539,10.426 l 0.6875,2.2383 0.004,0.004 c 1.5391,5.9102 1.3789,12.137 -0.46484,17.957 -1.8438,5.8242 -5.2969,11.008 -9.9609,14.953 -2.5,2.1523 -4.9102,4.4805 -7.1523,6.8047 -4.2188,4.4805 -9.6289,7.6719 -15.594,9.1953 -5.9609,1.5273 -12.238,1.3242 -18.09,-0.57813 l -2.2422,-0.69141 c -4.1992,-1.3438 -8.734397,0.70312 -10.511997,4.7383 l -16.367,35.582 c -2.0391,4.14839 -0.44531,9.168 3.6172,11.37099 l 2.2383,1.293 h 0.0039 c 5.2148,3.04301 9.4688,7.49221 12.273,12.84 2.8047,5.3516 4.043,11.379 3.5781,17.402 v 9.9062 c 0.21875,6.0859 -1.2812,12.109 -4.3281,17.383 -3.0469,5.2734 -7.5195,9.582 -12.902,12.426 l -2.2383,1.1211 h -0.0039 c -3.9648,1.9727 -5.7891,6.6289 -4.2188,10.77 z m 27.398,-78.484 v -8.6172 c 1.3516,-17.133 -6.2383,-33.75 -20.074,-43.941 l 9.9062,-22.141 c 16.816,3.582 34.289,-1.7969 46.18,-14.215 1.9805,-1.9805 4.0508,-3.9648 6.2891,-5.8594 13.164,-11.129 19.672,-28.25 17.23,-45.316 l 22.66,-8.6172 v 0.004 c 9.3828,14.316 25.441,22.832 42.559,22.57 2.8711,-0.16406 5.7461,-0.16406 8.6133,0 17.238,1.4961 34.023,-6.0352 44.371,-19.902 l 21.797,9.8242 c -3.5977,16.816 1.7812,34.293 14.215,46.176 2.0664,1.9805 4.0508,4.1367 5.9453,6.2031 11.094,13.164 28.191,19.676 45.23,17.23 l 8.6172,22.66 c -14.504,9.457 -23.051,25.77 -22.574,43.078 v 8.6172 -0.004 c -1.3555,17.109 6.2383,33.699 20.074,43.852 l -9.9062,22.227 v 0.004 c -16.852,-3.707 -34.422,1.5703 -46.438,13.957 -1.9922,2.0898 -4.0898,4.0742 -6.2891,5.9414 -13.207,11.066 -19.73,28.188 -17.23,45.23 l -22.746,8.6172 c -9.2539,-14.402 -25.27,-23.027 -42.387,-22.832 -2.8711,0.16406 -5.7461,0.16406 -8.6172,0 -17.109,-1.3555 -33.715,6.1992 -43.938,19.988 l -22.141,-9.9062 c 3.582,-16.789 -1.7969,-34.238 -14.215,-46.094 -2.0664,-2.0664 -4.0508,-4.1367 -5.9453,-6.2891 -11.055,-13.219 -28.184,-19.746 -45.23,-17.23 l -8.6172,-22.66 c 14.363,-9.3516 22.918,-25.422 22.66,-42.559 z"
       id="path61" />
    <path
       d="m 211.89,434.64 c 17.652,7.9102 37.723,8.4883 55.801,1.6055 18.078,-6.8828 32.684,-20.66 40.605,-38.305 8.582,-17.75 9.6172,-38.219 2.8672,-56.746 -6.75,-18.523 -20.711,-33.527 -38.699,-41.598 -17.988,-8.0703 -38.48,-8.5156 -56.801,-1.2383 -18.324,7.2812 -32.926,21.664 -40.473,39.875 -7.9336,17.652 -8.5234,37.73 -1.6406,55.812 6.8867,18.086 20.68,32.691 38.34,40.594 z m -21.277,-89.426 c 8.1562,-18.176 25.387,-30.617 45.207,-32.645 19.82,-2.0234 39.211,6.6797 50.875,22.832 11.66,16.152 13.82,37.297 5.6641,55.473 -6.125,13.371 -17.289,23.781 -31.055,28.957 -13.766,5.1797 -29.023,4.707 -42.441,-1.3164 -13.418,-6.0195 -23.914,-17.102 -29.199,-30.828 -5.3516,-13.719 -5.0117,-29.004 0.94922,-42.473 z"
       id="path63" />
    <path
       d="m 346.9,224 c -1.457,4.2305 0.5625,8.8711 4.6523,10.684 l 23.262,10.34 c 4.1016,1.793 8.8945,0.14453 11.027,-3.793 l 0.6875,-1.293 c 1.7617,-2.918 4.3164,-5.2812 7.3672,-6.8047 3.0508,-1.5234 6.4727,-2.1523 9.8672,-1.8086 h 6.6328 c 3.3828,-0.0547 6.7148,0.84766 9.6094,2.5977 2.8945,1.7539 5.2383,4.2852 6.7578,7.3086 l 0.6875,1.3789 h 0.004 c 1.4844,2.8633 4.4414,4.6602 7.668,4.6523 1.0547,-0.004 2.1016,-0.17969 3.1016,-0.51562 l 23.691,-9.1328 c 4.1562,-1.5742 6.4336,-6.0547 5.2539,-10.34 l -0.42969,-1.5508 c -0.85938,-3.2734 -0.76172,-6.7227 0.27734,-9.9453 1.0352,-3.2188 2.9727,-6.0781 5.582,-8.2344 1.6914,-1.4297 3.3008,-2.9531 4.8242,-4.5664 2.3242,-2.4883 5.3086,-4.2617 8.6016,-5.1172 3.2969,-0.85547 6.7656,-0.75391 10.008,0.29297 l 1.5508,0.42969 v 0.004 c 4.1758,1.3516 8.7031,-0.65234 10.512,-4.6523 l 10.426,-23.176 h -0.004 c 1.8242,-4.0586 0.25391,-8.8398 -3.6172,-11.027 l -1.3789,-0.77344 v -0.004 c -2.9219,-1.7617 -5.2812,-4.3164 -6.8047,-7.3672 -1.5273,-3.0508 -2.1523,-6.4688 -1.8086,-9.8633 v -6.5469 c -0.12109,-3.3867 0.71875,-6.7422 2.4297,-9.668 1.707,-2.9297 4.2109,-5.3125 7.2188,-6.875 l 1.4648,-0.6875 c 3.9648,-1.9727 5.7891,-6.6289 4.2188,-10.77 l -8.957,-23.690999 c -1.582,-4.2422 -6.1719,-6.5352 -10.512,-5.2578 l -1.5508,0.42969 v 0.0039 c -3.293,0.85547 -6.7656,0.75 -10,-0.30469 -3.2383,-1.0547 -6.1055,-3.0117 -8.2656,-5.6406 -1.4648,-1.6367 -2.9297,-3.1875 -4.4805,-4.7383 -2.4805,-2.293 -4.2578,-5.2461 -5.1094,-8.5117 -0.85547,-3.2695 -0.75781,-6.7148 0.28516,-9.9258 l 0.51562,-1.4648 h 0.004 c 1.5195,-4.2305 -0.46875,-8.9219 -4.5664,-10.77 l -23.262,-10.34 c -4.1055,-1.8594 -8.9492,-0.24609 -11.113,3.707 l -0.60156,1.293 h -0.004 c -1.7461,2.9336 -4.2969,5.3047 -7.3516,6.832 -3.0547,1.5273 -6.4844,2.1445 -9.8789,1.7812 -2.207,-0.17188 -4.4258,-0.17188 -6.6328,0 -3.4062,0.09375 -6.7656,-0.77734 -9.6914,-2.5156 -2.9297,-1.7383 -5.3047,-4.2734 -6.8516,-7.3047 l -0.6875,-1.4648 c -2.0039,-3.9336 -6.6523,-5.7188 -10.77,-4.1367 l -23.434,9.3047 c -4.125,1.6094 -6.3594,6.0781 -5.1719,10.34 v 1.5508 c 0.81641,3.2734 0.70312,6.7109 -0.33203,9.9258 -1.0352,3.2109 -2.9492,6.0703 -5.5234,8.25 -1.6914,1.4375 -3.3008,2.9609 -4.8242,4.5664 -2.3438,2.4609 -5.3359,4.2031 -8.6328,5.0273 -3.293,0.82422 -6.7539,0.69531 -9.9766,-0.375 h -1.5508 c -3.8359,-1.25 -8.0234,0.32422 -10.082,3.793 l -10.426,23.175999 c -1.9961,4.1016 -0.44922,9.0547 3.5352,11.285 l 1.4648,0.86328 c 2.9883,1.6875 5.4023,4.2266 6.9375,7.2969 1.5352,3.0703 2.1211,6.5273 1.6758,9.9336 v 6.6328 c 0.11328,3.3945 -0.74219,6.7539 -2.4648,9.6836 -1.7266,2.9297 -4.2461,5.3086 -7.2695,6.8594 l -1.3789,0.6875 c -4,1.9414 -5.8633,6.6055 -4.3086,10.77 l 9.1328,23.777 c 1.5742,4.1562 6.0547,6.4336 10.34,5.2578 l 1.4648,-0.42969 v -0.004 c 3.3047,-0.85156 6.7891,-0.74219 10.039,0.30859 3.2461,1.0547 6.1289,3.0078 8.3086,5.6367 1.3789,1.6367 2.9297,3.1875 4.4805,4.7383 2.5156,2.2695 4.3047,5.2266 5.1484,8.5039 0.84375,3.2812 0.69922,6.7344 -0.41016,9.9336 z m -25.414,-48.418 -3.875,-10.168 h -0.004 c 8.9648,-6.8242 14.148,-17.508 13.957,-28.773 v -5.4258 -0.004 c 1.125,-11.27 -3.2344,-22.391 -11.715,-29.895 l 4.4805,-9.992196 h -0.004 c 11.082,1.4648 22.203,-2.4023 29.984,-10.426 1.1797,-1.1797 2.4141,-2.3008 3.7031,-3.3594 8.582,-7.3164 13.133,-18.309 12.234,-29.551 l 9.9062,-4.2227 c 6.8438,9.0391 17.617,14.23 28.949,13.957 h 5.5156 c 11.184,0.91406 22.129,-3.5664 29.461,-12.062 l 9.9922,4.3945 h 0.004 c -1.543,11.184 2.3672,22.426 10.512,30.242 1.3203,1.3203 2.5273,2.6133 3.6172,3.875 7.3438,8.5469 18.316,13.09 29.551,12.234 l 3.875,10.167996 c -8.9414,6.832 -14.094,17.52 -13.867,28.773 v 5.4258 c -0.85938,11.211 3.6875,22.16 12.23,29.465 l -4.4805,9.9922 0.004,0.004 c -11.168,-1.5508 -22.402,2.3242 -30.242,10.426 -1.207,1.293 -2.5,2.5 -3.7891,3.7031 -8.6602,7.3086 -13.277,18.336 -12.406,29.637 l -10.168,3.875 c -6.8047,-8.8945 -17.402,-14.062 -28.602,-13.953 -1.8359,0.12891 -3.6797,0.12891 -5.5156,0 -11.223,-0.77344 -22.156,3.7539 -29.551,12.23 l -9.9062,-4.3945 v 0.004 c 1.5,-11.18 -2.4023,-22.402 -10.512,-30.242 l -3.7031,-3.875 c -7.2852,-8.707 -18.32,-13.359 -29.637,-12.492 z"
       id="path65" />
    <path
       d="m 388.77,181.61 c 6.4531,2.875 13.438,4.3711 20.504,4.3945 12.105,0.0156 23.805,-4.3398 32.953,-12.266 9.1484,-7.9258 15.129,-18.891 16.836,-30.871 1.7109,-11.984 -0.96484,-24.18 -7.5312,-34.348 -6.5703,-10.168 -16.586,-17.621 -28.215,-20.988 -11.625,-3.3672 -24.074,-2.4258 -35.062,2.6562 -10.984,5.0781 -19.766,13.957 -24.727,24.996 -5.4453,12.16 -5.8438,25.98 -1.1094,38.43 4.7305,12.453 14.207,22.52 26.352,27.996 z m -9.5625,-59.359 c 2.6094,-5.8125 6.8477,-10.742 12.195,-14.195 5.3516,-3.457 11.59,-5.2891 17.957,-5.2773 11.172,0.0547 21.559,5.7422 27.625,15.125 6.0625,9.3828 6.9805,21.191 2.4414,31.398 -4.832,10.773 -15.043,18.148 -26.789,19.352 -11.746,1.1992 -23.242,-3.957 -30.152,-13.527 -6.9141,-9.5703 -8.1953,-22.105 -3.3633,-32.875 z"
       id="path67" />
    <path
       d="m 538.16,318.77 -0.60156,1.293 c -1.7461,2.9336 -4.3008,5.3047 -7.3555,6.832 -3.0508,1.5273 -6.4805,2.1484 -9.8789,1.7812 h -6.6328 c -3.3828,0.0547 -6.7148,-0.84766 -9.6094,-2.5977 -2.8945,-1.7539 -5.2383,-4.2852 -6.7578,-7.3086 l -0.6875,-1.4648 h -0.004 c -2,-3.9336 -6.6484,-5.7188 -10.77,-4.1367 l -23.777,9.1328 c -4.1211,1.6094 -6.3555,6.0781 -5.168,10.34 l 0.42969,1.5508 c 0.83594,3.2734 0.73047,6.7188 -0.30469,9.9336 -1.0391,3.2188 -2.9609,6.0742 -5.5547,8.2461 -1.6875,1.4336 -3.3008,2.957 -4.8242,4.5625 -2.3398,2.4609 -5.3359,4.2031 -8.6289,5.0273 -3.2969,0.82422 -6.7539,0.69531 -9.9805,-0.375 h -1.5508 c -4.1758,-1.3516 -8.7031,0.65234 -10.512,4.6523 l -9.9922,23.09 c -1.8359,4.0391 -0.30859,8.8086 3.5312,11.027 l 1.4648,0.77344 v 0.004 c 2.9414,1.7383 5.3203,4.2891 6.8516,7.3438 1.5273,3.0586 2.1406,6.4883 1.7656,9.8867 v 6.6328 c 0.11328,3.3984 -0.74219,6.7578 -2.4688,9.6836 -1.7227,2.9297 -4.2422,5.3086 -7.2695,6.8594 l -1.3789,0.6875 h 0.004 c -4,1.9414 -5.8672,6.6055 -4.3086,10.77 l 9.1328,23.777 c 1.5742,4.1602 6.0508,6.4336 10.336,5.2578 l 1.5508,-0.42969 c 3.2969,-0.84766 6.7617,-0.73437 9.9961,0.31641 3.2344,1.0547 6.1016,3.0039 8.2695,5.625 1.3789,1.6367 2.9297,3.1875 4.4805,4.7383 2.5117,2.2695 4.3047,5.2266 5.1445,8.5078 0.84375,3.2773 0.70313,6.7305 -0.40625,9.9297 l -0.51562,1.5508 c -1.457,4.2305 0.5625,8.8711 4.6523,10.684 l 23.262,10.34 c 4.0781,1.8086 8.8633,0.19922 11.027,-3.707 l 0.6875,-1.293 v 0.004 c 1.7695,-2.9141 4.3242,-5.2695 7.375,-6.793 3.0469,-1.5234 6.4648,-2.1562 9.8555,-1.8242 h 6.6328 0.004 c 3.3984,-0.082 6.75779,0.79297 9.68359,2.5312 2.9258,1.7383 5.3008,4.2617 6.8555,7.2891 l 0.6875,1.4648 h 0.004 c 1.4805,2.8633 4.4414,4.6602 7.668,4.6523 1.0547,0 2.1016,-0.17578 3.1016,-0.51563 l 23,-9.5625 c 4.1562,-1.5742 6.4336,-6.0547 5.2578,-10.34 v -1.5508 c -0.85938,-3.2734 -0.76562,-6.7227 0.27344,-9.9453 1.0391,-3.2188 2.9766,-6.0742 5.582,-8.2305 1.6367,-1.4648 3.2734,-2.9297 4.8242,-4.5664 h 0.004 c 2.3359,-2.4688 5.3281,-4.2188 8.625,-5.043 3.2969,-0.82422 6.7578,-0.6875 9.9844,0.39062 l 1.5508,0.42969 h -0.004 c 3.9141,1.1289 8.0781,-0.62891 9.9961,-4.2227 l 10.426,-23.176 c 1.9961,-4.1016 0.44922,-9.0547 -3.5352,-11.285 l -1.3789,-0.77344 c -2.918,-1.7617 -5.2773,-4.3164 -6.8047,-7.3672 -1.5234,-3.0508 -2.1523,-6.4727 -1.8086,-9.8672 v -6.5469 c -0.10938,-3.3867 0.73438,-6.7344 2.4414,-9.6602 1.707,-2.9258 4.207,-5.3086 7.207,-6.8789 l 1.4648,-0.6875 v -0.004 c 3.9648,-1.9688 5.793,-6.6289 4.2227,-10.77 l -9.0469,-23.777 c -1.5742,-4.1562 -6.0508,-6.4336 -10.34,-5.2539 h -1.5508 c -3.293,0.84375 -6.7617,0.73047 -9.9961,-0.32031 -3.2344,-1.0508 -6.1016,-3.0039 -8.2656,-5.625 -1.4648,-1.6367 -2.9297,-3.1875 -4.4805,-4.7383 -2.4844,-2.293 -4.2578,-5.2461 -5.1133,-8.5117 -0.85547,-3.2695 -0.75391,-6.7148 0.28906,-9.9258 l 0.60156,-1.5508 c 1.457,-4.2305 -0.5625,-8.8711 -4.6523,-10.684 l -23.262,-10.34 c -4.168,-1.7539 -8.9844,0.0156 -11.027,4.0508 z m 31.531,49.969 c 1.3203,1.3203 2.5273,2.6133 3.6172,3.875 l 0.004,0.004 c 7.3477,8.5352 18.316,13.074 29.551,12.23 l 3.875,10.168 c -8.9102,6.8594 -14.055,17.531 -13.871,28.773 v 5.4258 0.004 c -0.85547,11.211 3.6875,22.156 12.234,29.465 l -4.4805,9.9922 c -11.395,-1.7812 -22.938,2.1094 -30.93,10.426 -1.2266,1.3008 -2.5234,2.5352 -3.875,3.7031 -8.5469,7.3438 -13.09,18.316 -12.234,29.551 l -9.7344,3.8789 c -6.7734,-8.9375 -17.395,-14.121 -28.605,-13.957 -1.832,0.17188 -3.6797,0.17188 -5.5117,0 -11.23,-0.81641 -22.184,3.7188 -29.551,12.234 l -9.9062,-4.3945 h -0.004 c 1.5,-11.176 -2.4023,-22.402 -10.508,-30.242 -1.293,-1.207 -2.5,-2.5859 -3.7031,-3.875 h -0.004 c -7.332,-8.5586 -18.312,-13.105 -29.551,-12.234 l -3.875,-10.168 v 0.004 c 8.9648,-6.8281 14.148,-17.512 13.957,-28.777 v -5.4258 c 0.85547,-11.211 -3.6914,-22.16 -12.234,-29.465 l 4.4805,-9.9922 v -0.004 c 11.164,1.5508 22.398,-2.3242 30.238,-10.422 1.207,-1.293 2.5,-2.5 3.7891,-3.7031 l 0.004,-0.004 c 8.5938,-7.4062 13.086,-18.508 12.059,-29.809 l 10.254,-3.875 c 6.7695,8.9375 17.391,14.117 28.602,13.953 h 5.5156 c 11.211,0.87109 22.164,-3.6758 29.465,-12.23 l 9.9922,4.3945 v -0.004 c -1.5195,11.34 2.5586,22.715 10.941,30.5 z"
       id="path69" />
    <path
       d="m 535.23,378.39 c -12.145,-5.4375 -25.953,-5.8359 -38.391,-1.1016 -12.438,4.7343 -22.488,14.207 -27.949,26.344 -5.4414,12.16 -5.8398,25.98 -1.1094,38.434 4.7344,12.449 14.211,22.52 26.355,27.992 6.4531,2.8789 13.438,4.375 20.504,4.3945 15.453,0.0156 30.051,-7.0859 39.582,-19.246 9.5312,-12.164 12.934,-28.035 9.2227,-43.035 -3.707,-15 -14.113,-27.461 -28.215,-33.781 z m 9.5625,59.359 c -3.5898,8.082 -10.27,14.383 -18.547,17.492 -8.277,3.109 -17.453,2.7656 -25.477,-0.94922 -7.9688,-3.5938 -14.191,-10.199 -17.309,-18.367 -3.1133,-8.168 -2.8711,-17.238 0.67969,-25.227 2.6211,-5.8047 6.8594,-10.727 12.207,-14.18 5.3476,-3.453 11.582,-5.293 17.949,-5.2891 11.168,0.0547 21.559,5.7422 27.621,15.125 6.0625,9.3789 6.9844,21.188 2.4453,31.395 z"
       id="path71" />
  </g>
</svg>
