<?xml version="1.0" encoding="UTF-8" standalone="no"?>
<svg
   width="700pt"
   height="700pt"
   version="1.1"
   viewBox="0 0 700 700"
   id="svg139"
   sodipodi:docname="button_ai.svg"
   inkscape:version="1.2.1 (9c6d41e, 2022-07-14)"
   xmlns:inkscape="http://www.inkscape.org/namespaces/inkscape"
   xmlns:sodipodi="http://sodipodi.sourceforge.net/DTD/sodipodi-0.dtd"
   xmlns="http://www.w3.org/2000/svg"
   xmlns:svg="http://www.w3.org/2000/svg"
   xmlns:rdf="http://www.w3.org/1999/02/22-rdf-syntax-ns#"
   xmlns:cc="http://creativecommons.org/ns#">
  <sodipodi:namedview
     id="namedview141"
     pagecolor="#ffffff"
     bordercolor="#000000"
     borderopacity="0.25"
     inkscape:showpageshadow="2"
     inkscape:pageopacity="0.0"
     inkscape:pagecheckerboard="0"
     inkscape:deskcolor="#d1d1d1"
     inkscape:document-units="pt"
     showgrid="false"
     inkscape:zoom="1.5203571"
     inkscape:cx="466.66667"
     inkscape:cy="466.66667"
     inkscape:window-width="3008"
     inkscape:window-height="1639"
     inkscape:window-x="1728"
     inkscape:window-y="25"
     inkscape:window-maximized="1"
     inkscape:current-layer="svg139" />
  <defs
     id="defs65">
    <symbol
       id="u"
       overflow="visible">
      <path
         d="m19.547-1.1719c-1.0117 0.52344-2.0625 0.91406-3.1562 1.1719-1.0938 0.26953-2.2344 0.40625-3.4219 0.40625-3.543 0-6.3516-0.98828-8.4219-2.9688-2.0625-1.9766-3.0938-4.6602-3.0938-8.0469 0-3.4062 1.0312-6.0977 3.0938-8.0781 2.0703-1.9766 4.8789-2.9688 8.4219-2.9688 1.1875 0 2.3281 0.13672 3.4219 0.40625 1.0938 0.26172 2.1445 0.65625 3.1562 1.1875v4.3906c-1.0234-0.6875-2.0273-1.1914-3.0156-1.5156-0.98047-0.32031-2.0156-0.48438-3.1094-0.48438-1.9609 0-3.5 0.625-4.625 1.875-1.1172 1.25-1.6719 2.9805-1.6719 5.1875 0 2.1875 0.55469 3.9141 1.6719 5.1719 1.125 1.25 2.6641 1.875 4.625 1.875 1.0938 0 2.1289-0.16016 3.1094-0.48438 0.98828-0.32031 1.9922-0.82812 3.0156-1.5156z"
         id="path2" />
    </symbol>
    <symbol
       id="d"
       overflow="visible">
      <path
         d="m14.297-11.609c-0.44922-0.20703-0.89062-0.35938-1.3281-0.45312-0.4375-0.10156-0.88281-0.15625-1.3281-0.15625-1.3125 0-2.3242 0.42188-3.0312 1.2656-0.71094 0.83594-1.0625 2.0391-1.0625 3.6094v7.3438h-5.0938v-15.953h5.0938v2.625c0.65625-1.0508 1.4062-1.8164 2.25-2.2969 0.85156-0.47656 1.875-0.71875 3.0625-0.71875 0.17578 0 0.36328 0.011719 0.5625 0.03125 0.19531 0.011719 0.48438 0.042969 0.85938 0.09375z"
         id="path5" />
    </symbol>
    <symbol
       id="b"
       overflow="visible">
      <path
         d="m18.375-8.0156v1.4531h-11.922c0.125 1.1992 0.55469 2.0938 1.2969 2.6875 0.73828 0.59375 1.7734 0.89062 3.1094 0.89062 1.0703 0 2.1719-0.15625 3.2969-0.46875 1.125-0.32031 2.2812-0.80469 3.4688-1.4531v3.9375c-1.2109 0.46094-2.418 0.80469-3.625 1.0312-1.2109 0.22656-2.4141 0.34375-3.6094 0.34375-2.8984 0-5.1484-0.72656-6.75-2.1875-1.5938-1.4688-2.3906-3.5312-2.3906-6.1875 0-2.5938 0.78516-4.6328 2.3594-6.125 1.5703-1.5 3.7344-2.25 6.4844-2.25 2.5078 0 4.5156 0.75781 6.0156 2.2656 1.5078 1.5117 2.2656 3.5312 2.2656 6.0625zm-5.2344-1.7031c0-0.96875-0.28906-1.75-0.85938-2.3438-0.5625-0.59375-1.2969-0.89062-2.2031-0.89062-0.99219 0-1.7969 0.28125-2.4219 0.84375-0.61719 0.55469-0.99609 1.3516-1.1406 2.3906z"
         id="path8" />
    </symbol>
    <symbol
       id="j"
       overflow="visible">
      <path
         d="m9.5938-7.1719c-1.0625 0-1.8672 0.18359-2.4062 0.54688-0.53125 0.35547-0.79688 0.88281-0.79688 1.5781 0 0.64844 0.21094 1.1523 0.64062 1.5156 0.4375 0.36719 1.0391 0.54688 1.8125 0.54688 0.95703 0 1.7656-0.34375 2.4219-1.0312s0.98438-1.5469 0.98438-2.5781v-0.57812zm7.7969-1.9375v9.1094h-5.1406v-2.3594c-0.6875 0.96875-1.4609 1.6719-2.3125 2.1094-0.85547 0.4375-1.8906 0.65625-3.1094 0.65625-1.6562 0-3-0.47656-4.0312-1.4375-1.0312-0.96875-1.5469-2.2188-1.5469-3.75 0-1.875 0.64062-3.25 1.9219-4.125 1.2891-0.875 3.3164-1.3125 6.0781-1.3125h3v-0.39062c0-0.8125-0.32031-1.4062-0.95312-1.7812-0.63672-0.375-1.6328-0.5625-2.9844-0.5625-1.0859 0-2.1016 0.10938-3.0469 0.32812-0.9375 0.21875-1.8086 0.54688-2.6094 0.98438v-3.8906c1.082-0.25781 2.1758-0.45703 3.2812-0.59375 1.1016-0.14453 2.207-0.21875 3.3125-0.21875 2.875 0 4.9453 0.57031 6.2188 1.7031 1.2812 1.1367 1.9219 2.9805 1.9219 5.5312z"
         id="path11" />
    </symbol>
    <symbol
       id="a"
       overflow="visible">
      <path
         d="m8.0156-20.484v4.5312h5.2656v3.6406h-5.2656v6.7656c0 0.74219 0.14453 1.2461 0.4375 1.5156 0.30078 0.26172 0.89062 0.39062 1.7656 0.39062h2.6094v3.6406h-4.3594c-2.0234 0-3.4531-0.41406-4.2969-1.25-0.83594-0.84375-1.25-2.2734-1.25-4.2969v-6.7656h-2.5312v-3.6406h2.5312v-4.5312z"
         id="path14" />
    </symbol>
    <symbol
       id="i"
       overflow="visible">
      <path
         d="m13.297-13.625v-8.5312h5.1406v22.156h-5.1406v-2.3125c-0.69922 0.94922-1.4688 1.6406-2.3125 2.0781-0.84375 0.42578-1.8242 0.64062-2.9375 0.64062-1.9688 0-3.5859-0.77344-4.8438-2.3281-1.2617-1.5625-1.8906-3.5781-1.8906-6.0469 0-2.457 0.62891-4.4688 1.8906-6.0312 1.2578-1.5625 2.875-2.3438 4.8438-2.3438 1.1016 0 2.0781 0.22656 2.9219 0.67188 0.85156 0.4375 1.6289 1.1211 2.3281 2.0469zm-3.3594 10.328c1.0938 0 1.9258-0.39453 2.5-1.1875 0.57031-0.80078 0.85938-1.9609 0.85938-3.4844 0-1.5078-0.28906-2.6641-0.85938-3.4688-0.57422-0.80078-1.4062-1.2031-2.5-1.2031-1.0859 0-1.9141 0.40234-2.4844 1.2031-0.57422 0.80469-0.85938 1.9609-0.85938 3.4688 0 1.5234 0.28516 2.6836 0.85938 3.4844 0.57031 0.79297 1.3984 1.1875 2.4844 1.1875z"
         id="path17" />
    </symbol>
    <symbol
       id="h"
       overflow="visible">
      <path
         d="m10.938-3.2969c1.0938 0 1.9258-0.39453 2.5-1.1875 0.57031-0.80078 0.85938-1.9609 0.85938-3.4844 0-1.5078-0.28906-2.6641-0.85938-3.4688-0.57422-0.80078-1.4062-1.2031-2.5-1.2031s-1.9336 0.40234-2.5156 1.2031c-0.58594 0.80469-0.875 1.9609-0.875 3.4688 0 1.5117 0.28906 2.668 0.875 3.4688 0.58203 0.80469 1.4219 1.2031 2.5156 1.2031zm-3.3906-10.328c0.70703-0.92578 1.4883-1.6094 2.3438-2.0469 0.85156-0.44531 1.832-0.67188 2.9375-0.67188 1.9688 0 3.582 0.78125 4.8438 2.3438 1.2695 1.5625 1.9062 3.5742 1.9062 6.0312 0 2.4688-0.63672 4.4844-1.9062 6.0469-1.2617 1.5547-2.875 2.3281-4.8438 2.3281-1.1055 0-2.0859-0.21875-2.9375-0.65625-0.85547-0.4375-1.6367-1.125-2.3438-2.0625v2.3125h-5.0938v-22.156h5.0938z"
         id="path20" />
    </symbol>
    <symbol
       id="g"
       overflow="visible">
      <path
         d="m0.35938-15.953h5.0938l4.2969 10.828 3.6406-10.828h5.0938l-6.7031 17.469c-0.67969 1.7695-1.4648 3.0078-2.3594 3.7188-0.89844 0.70703-2.0781 1.0625-3.5469 1.0625h-2.9531v-3.3438h1.5938c0.86328 0 1.4922-0.14062 1.8906-0.42188 0.39453-0.27344 0.70312-0.76562 0.92188-1.4844l0.14062-0.4375z"
         id="path23" />
    </symbol>
    <symbol
       id="e"
       overflow="visible">
      <path
         d="m2.6719-21.266h9.1094c2.707 0 4.7852 0.60547 6.2344 1.8125 1.4453 1.1992 2.1719 2.9062 2.1719 5.125 0 2.2305-0.72656 3.9492-2.1719 5.1562-1.4492 1.1992-3.5273 1.7969-6.2344 1.7969h-3.625v7.375h-5.4844zm5.4844 3.9688v5.9375h3.0469c1.0625 0 1.8789-0.25391 2.4531-0.76562 0.58203-0.51953 0.875-1.2539 0.875-2.2031 0-0.94531-0.29297-1.6758-0.875-2.1875-0.57422-0.51953-1.3906-0.78125-2.4531-0.78125z"
         id="path26" />
    </symbol>
    <symbol
       id="f"
       overflow="visible">
      <path
         d="m2.2812-6.2031v-9.75h5.125v1.5938c0 0.86719-0.007812 1.9531-0.015625 3.2656-0.011719 1.3047-0.015625 2.1719-0.015625 2.6094 0 1.2812 0.03125 2.2031 0.09375 2.7656 0.070312 0.5625 0.1875 0.97656 0.34375 1.2344 0.21875 0.33594 0.49219 0.58984 0.82812 0.76562 0.33203 0.17969 0.71875 0.26562 1.1562 0.26562 1.0625 0 1.8945-0.40625 2.5-1.2188 0.61328-0.8125 0.92188-1.9453 0.92188-3.4062v-7.875h5.0938v15.953h-5.0938v-2.3125c-0.77344 0.9375-1.5898 1.625-2.4531 2.0625-0.85547 0.4375-1.7969 0.65625-2.8281 0.65625-1.8438 0-3.25-0.5625-4.2188-1.6875-0.96094-1.1328-1.4375-2.7734-1.4375-4.9219z"
         id="path29" />
    </symbol>
    <symbol
       id="t"
       overflow="visible">
      <path
         d="m14.906-15.453v3.875c-1.0859-0.45703-2.1367-0.80078-3.1562-1.0312-1.0117-0.22656-1.9688-0.34375-2.875-0.34375-0.96875 0-1.6875 0.125-2.1562 0.375-0.46875 0.24219-0.70312 0.60938-0.70312 1.1094 0 0.40625 0.17578 0.71875 0.53125 0.9375 0.35156 0.21875 0.99219 0.38281 1.9219 0.48438l0.89062 0.14062c2.6133 0.32422 4.3672 0.86719 5.2656 1.625 0.90625 0.76172 1.3594 1.9531 1.3594 3.5781 0 1.6992-0.63281 2.9766-1.8906 3.8281-1.25 0.85547-3.1211 1.2812-5.6094 1.2812-1.0547 0-2.1406-0.085938-3.2656-0.25-1.125-0.15625-2.2812-0.39844-3.4688-0.73438v-3.875c1.0195 0.49219 2.0625 0.85938 3.125 1.1094 1.0703 0.24219 2.1602 0.35938 3.2656 0.35938 0.98828 0 1.7344-0.13281 2.2344-0.40625 0.50781-0.26953 0.76562-0.67578 0.76562-1.2188 0-0.45703-0.17969-0.79688-0.53125-1.0156-0.34375-0.22656-1.0312-0.40625-2.0625-0.53125l-0.89062-0.10938c-2.2734-0.28125-3.8672-0.80469-4.7812-1.5781-0.90625-0.76953-1.3594-1.9414-1.3594-3.5156 0-1.6875 0.57812-2.9375 1.7344-3.75 1.1562-0.82031 2.9297-1.2344 5.3281-1.2344 0.9375 0 1.9219 0.074219 2.9531 0.21875 1.0391 0.14844 2.1641 0.37109 3.375 0.67188z"
         id="path32" />
    </symbol>
    <symbol
       id="s"
       overflow="visible">
      <path
         d="m7.5469-2.3125v8.375h-5.0938v-22.016h5.0938v2.3281c0.70703-0.92578 1.4883-1.6094 2.3438-2.0469 0.85156-0.44531 1.832-0.67188 2.9375-0.67188 1.9688 0 3.582 0.78125 4.8438 2.3438 1.2695 1.5625 1.9062 3.5742 1.9062 6.0312 0 2.4688-0.63672 4.4844-1.9062 6.0469-1.2617 1.5547-2.875 2.3281-4.8438 2.3281-1.1055 0-2.0859-0.21875-2.9375-0.65625-0.85547-0.4375-1.6367-1.125-2.3438-2.0625zm3.3906-10.328c-1.0938 0-1.9336 0.40234-2.5156 1.2031-0.58594 0.80469-0.875 1.9609-0.875 3.4688 0 1.5117 0.28906 2.668 0.875 3.4688 0.58203 0.80469 1.4219 1.2031 2.5156 1.2031s1.9258-0.39453 2.5-1.1875c0.57031-0.80078 0.85938-1.9609 0.85938-3.4844 0-1.5078-0.28906-2.6641-0.85938-3.4688-0.57422-0.80078-1.4062-1.2031-2.5-1.2031z"
         id="path35" />
    </symbol>
    <symbol
       id="r"
       overflow="visible">
      <path
         d="m2.4531-15.953h5.0938v15.953h-5.0938zm0-6.2031h5.0938v4.1562h-5.0938z"
         id="path38" />
    </symbol>
    <symbol
       id="c"
       overflow="visible">
      <path
         d="m10.047-12.688c-1.1367 0-2 0.40625-2.5938 1.2188s-0.89062 1.9805-0.89062 3.5c0 1.5312 0.29688 2.7031 0.89062 3.5156s1.457 1.2188 2.5938 1.2188c1.1016 0 1.9453-0.40625 2.5312-1.2188 0.59375-0.8125 0.89062-1.9844 0.89062-3.5156 0-1.5195-0.29688-2.6875-0.89062-3.5-0.58594-0.8125-1.4297-1.2188-2.5312-1.2188zm0-3.6562c2.7383 0 4.8789 0.74609 6.4219 2.2344 1.5391 1.4805 2.3125 3.5273 2.3125 6.1406 0 2.625-0.77344 4.6797-2.3125 6.1562-1.543 1.4805-3.6836 2.2188-6.4219 2.2188-2.7617 0-4.918-0.73828-6.4688-2.2188-1.5547-1.4766-2.3281-3.5312-2.3281-6.1562 0-2.6133 0.77344-4.6602 2.3281-6.1406 1.5508-1.4883 3.707-2.2344 6.4688-2.2344z"
         id="path41" />
    </symbol>
    <symbol
       id="q"
       overflow="visible">
      <path
         d="m12.953-22.156v3.3438h-2.8281c-0.71875 0-1.2266 0.13281-1.5156 0.39062-0.28125 0.26172-0.42188 0.71484-0.42188 1.3594v1.1094h4.3594v3.6406h-4.3594v12.312h-5.0938v-12.312h-2.5312v-3.6406h2.5312v-1.1094c0-1.7383 0.48438-3.0195 1.4531-3.8438 0.96875-0.83203 2.4688-1.25 4.5-1.25z"
         id="path44" />
    </symbol>
    <symbol
       id="p"
       overflow="visible">
      <path
         d="m17.234-13.297c0.64453-0.98828 1.4102-1.7422 2.2969-2.2656 0.89453-0.51953 1.875-0.78125 2.9375-0.78125 1.832 0 3.2266 0.57031 4.1875 1.7031 0.95703 1.125 1.4375 2.7656 1.4375 4.9219v9.7188h-5.125v-8.3125-0.39062c0.007812-0.13281 0.015625-0.32031 0.015625-0.5625 0-1.1328-0.16797-1.9531-0.5-2.4531-0.32422-0.50781-0.85938-0.76562-1.6094-0.76562-0.96875 0-1.7188 0.40234-2.25 1.2031-0.52344 0.79297-0.79297 1.9453-0.8125 3.4531v7.8281h-5.125v-8.3125c0-1.7695-0.15234-2.9062-0.45312-3.4062-0.30469-0.50781-0.84375-0.76562-1.625-0.76562-0.98047 0-1.7344 0.40234-2.2656 1.2031-0.53125 0.80469-0.79688 1.9492-0.79688 3.4375v7.8438h-5.125v-15.953h5.125v2.3281c0.625-0.89453 1.3438-1.5703 2.1562-2.0312 0.8125-0.45703 1.707-0.6875 2.6875-0.6875 1.1016 0 2.0781 0.26562 2.9219 0.79688s1.4844 1.2812 1.9219 2.25z"
         id="path47" />
    </symbol>
    <symbol
       id="o"
       overflow="visible">
      <path
         d="m18.484-9.7188v9.7188h-5.125v-7.4062c0-1.3945-0.03125-2.3516-0.09375-2.875-0.0625-0.51953-0.16797-0.90625-0.3125-1.1562-0.19922-0.33203-0.46875-0.58594-0.8125-0.76562-0.34375-0.1875-0.73438-0.28125-1.1719-0.28125-1.0625 0-1.9023 0.41406-2.5156 1.2344-0.60547 0.8125-0.90625 1.9492-0.90625 3.4062v7.8438h-5.0938v-22.156h5.0938v8.5312c0.76953-0.92578 1.5859-1.6094 2.4531-2.0469 0.86328-0.44531 1.8164-0.67188 2.8594-0.67188 1.8438 0 3.2383 0.57031 4.1875 1.7031 0.95703 1.125 1.4375 2.7656 1.4375 4.9219z"
         id="path50" />
    </symbol>
    <symbol
       id="n"
       overflow="visible">
      <path
         d="m2.6719-21.266h6.125l7.7344 14.578v-14.578h5.2031v21.266h-6.125l-7.7344-14.594v14.594h-5.2031z"
         id="path53" />
    </symbol>
    <symbol
       id="m"
       overflow="visible">
      <path
         d="m18.484-9.7188v9.7188h-5.125v-7.4375c0-1.375-0.03125-2.3203-0.09375-2.8438-0.0625-0.51953-0.16797-0.90625-0.3125-1.1562-0.19922-0.33203-0.46875-0.58594-0.8125-0.76562-0.34375-0.1875-0.73438-0.28125-1.1719-0.28125-1.0625 0-1.9023 0.41406-2.5156 1.2344-0.60547 0.8125-0.90625 1.9492-0.90625 3.4062v7.8438h-5.0938v-15.953h5.0938v2.3281c0.76953-0.92578 1.5859-1.6094 2.4531-2.0469 0.86328-0.44531 1.8164-0.67188 2.8594-0.67188 1.8438 0 3.2383 0.57031 4.1875 1.7031 0.95703 1.125 1.4375 2.7656 1.4375 4.9219z"
         id="path56" />
    </symbol>
    <symbol
       id="l"
       overflow="visible">
      <path
         d="m2.4531-15.953h5.0938v15.672c0 2.1328-0.51562 3.7656-1.5469 4.8906-1.0234 1.125-2.5078 1.6875-4.4531 1.6875h-2.5156v-3.3438h0.89062c0.96875 0 1.6289-0.21875 1.9844-0.65625 0.36328-0.4375 0.54688-1.2969 0.54688-2.5781zm0-6.2031h5.0938v4.1562h-5.0938z"
         id="path59" />
    </symbol>
    <symbol
       id="k"
       overflow="visible">
      <path
         d="m15.344-15.453v4.1562c-0.69922-0.46875-1.3984-0.81641-2.0938-1.0469-0.69922-0.22656-1.4219-0.34375-2.1719-0.34375-1.4297 0-2.5391 0.41797-3.3281 1.25-0.79297 0.82422-1.1875 1.9805-1.1875 3.4688 0 1.5 0.39453 2.668 1.1875 3.5 0.78906 0.82422 1.8984 1.2344 3.3281 1.2344 0.80078 0 1.5547-0.11719 2.2656-0.35938 0.71875-0.23828 1.3828-0.58594 2-1.0469v4.1719c-0.80469 0.29297-1.6172 0.50781-2.4375 0.65625-0.8125 0.14453-1.6367 0.21875-2.4688 0.21875-2.875 0-5.125-0.73438-6.75-2.2031-1.625-1.4766-2.4375-3.5352-2.4375-6.1719 0-2.625 0.8125-4.6758 2.4375-6.1562 1.625-1.4766 3.875-2.2188 6.75-2.2188 0.83203 0 1.6562 0.078125 2.4688 0.23438 0.8125 0.14844 1.625 0.36719 2.4375 0.65625z"
         id="path62" />
    </symbol>
  </defs>
  <path
     d="m 636.37374,304.61289 c 25.28577,0 45.85881,-19.42744 45.85881,-43.30519 0,-23.87774 -20.57304,-43.30518 -45.85881,-43.30518 -22.10357,0 -40.60955,14.84405 -44.91182,34.54001 l -90.64455,0.0548 c -6.98787,-10.8353 -18.05227,-19.06671 -31.15319,-22.82004 -4.12413,-18.13626 -17.97932,-32.45613 -36.07485,-38.19762 v -70.12376 c 0,-15.88775 13.68569,-28.821868 30.51156,-28.821868 l 127.36226,-0.0411 c 4.30772,19.686618 22.80825,34.535348 44.91183,34.535348 25.28577,0 45.85881,-19.42746 45.85881,-43.305196 0,-23.877746 -20.57304,-43.305197 -45.85881,-43.305197 -22.10358,0 -40.60955,14.844064 -44.91183,34.535352 l -127.37462,0.0411 c -27.06356,0.0047 -49.0843,20.813203 -49.0843,46.369731 v 67.40591 c -29.52623,0.42869 -54.31007,24.07388 -54.31007,52.02835 v 218.31214 c 0,28.44711 24.29056,51.61857 54.31007,52.02834 v 67.4059 c 0,25.55655 22.01703,46.36508 49.0843,46.36974 l 127.37462,0.0411 c 4.30772,19.68661 22.80825,34.53534 44.91183,34.53534 25.28577,0 45.85881,-19.42745 45.85881,-43.30519 0,-23.87774 -20.57304,-43.30519 -45.85881,-43.30519 -22.10358,0 -40.59966,14.84406 -44.91183,34.53535 l -127.36226,-0.041 c -16.82463,-0.004 -30.51156,-12.93762 -30.51156,-28.82187 v -70.18794 c 21.63997,-6.98191 37.26292,-26.32704 37.33957,-49.0782 11.09283,-1.44565 21.253,-5.6502 29.69066,-11.87526 l 90.8473,0.0548 c 4.30772,19.68662 22.80825,34.54002 44.91182,34.54002 25.28578,0 45.85882,-19.42745 45.85882,-43.30519 0,-23.87775 -20.57304,-43.30519 -45.85882,-43.30519 -22.10357,0 -40.59965,14.84405 -44.91182,34.526 l -74.8584,-0.041 c 5.08521,-8.50506 7.99729,-18.31486 7.99729,-28.75766 0,-11.25031 -3.37568,-21.76701 -9.20935,-30.70496 9.0741,-10.35652 14.16908,-23.49015 14.16908,-37.03951 0,-17.14276 -8.01175,-33.25349 -21.68322,-44.23098 0.61814,-3.1375 0.95135,-6.36163 0.95135,-9.63597 0,-3.23323 -0.33321,-6.40273 -0.93205,-9.47183 l 83.56062,-0.0457 c 4.31736,19.66911 22.81321,34.512 44.91678,34.512 z m 0,-69.06602 c 15.04314,0 27.2799,11.55583 27.2799,25.76083 0,14.205 -12.23726,25.76084 -27.2799,25.76084 -15.04264,0 -27.27991,-11.55584 -27.27991,-25.76084 0,-14.205 12.23727,-25.76083 27.27991,-25.76083 z m 0,-177.498275 c 15.04314,0 27.2799,11.555833 27.2799,25.760832 0,14.205005 -12.23726,25.760833 -27.2799,25.760833 -15.04264,0 -27.27991,-11.555828 -27.27991,-25.760833 0,-14.200797 12.23727,-25.760832 27.27991,-25.760832 z m 0,532.471495 c 15.04314,0 27.2799,11.55583 27.2799,25.76083 0,14.205 -12.23726,25.76083 -27.2799,25.76083 -15.04264,0 -27.27991,-11.55583 -27.27991,-25.76083 0,-14.205 12.23727,-25.76083 27.27991,-25.76083 z m 0,-177.48661 c 15.04314,0 27.2799,11.55583 27.2799,25.76083 0,14.205 -12.23726,25.76083 -27.2799,25.76083 -15.04264,0 -27.27991,-11.55583 -27.27991,-25.76083 0,-14.21013 12.23727,-25.76083 27.27991,-25.76083 z M 510.98953,333.46513 c 0,8.54604 -2.74789,16.63141 -7.86204,23.40842 -10.91888,-8.95651 -25.15596,-14.38759 -40.71587,-14.38759 -5.1286,0 -9.28661,3.93102 -9.28661,8.7695 0,4.84303 4.16283,8.76949 9.28661,8.76949 24.04949,0 43.61744,18.47364 43.61744,41.18862 0,22.7103 -19.563,41.18862 -43.61744,41.18862 -11.6337,0 -22.58201,-4.27764 -30.81568,-12.0352 -3.63642,-3.42481 -9.51359,-3.42026 -13.14049,0.0137 -3.62195,3.43392 -3.62195,8.98384 0.0145,12.40877 9.33012,8.79693 21.10835,14.43778 33.88166,16.38509 v 0.0273 c 0,19.02584 -16.39068,34.50849 -36.54339,34.50849 -19.80531,0 -36.54341,-15.80136 -36.54341,-34.50849 V 240.88969 c 0,-18.38259 17.0756,-34.5085 36.54341,-34.5085 15.25083,0 28.31838,8.66465 33.79514,21.29652 -13.31482,0.91207 -25.67274,6.26591 -35.15259,15.32271 -3.60748,3.44758 -3.56878,9.00205 0.0773,12.40878 3.65088,3.40659 9.53288,3.37005 13.1405,-0.073 6.92518,-6.62164 16.16321,-10.26079 26.01023,-10.26079 20.1626,0 36.56194,15.48732 36.56194,34.52601 0,10.78065 -5.19141,20.74899 -14.24202,27.34855 -4.06145,2.96426 -4.8099,8.47309 -1.67096,12.3037 1.83032,2.23916 4.57809,3.41116 7.35492,3.41116 1.98485,0 3.97936,-0.5974 5.66948,-1.83324 5.34596,-3.89448 9.77928,-8.57348 13.21344,-13.79452 6.64022,7.27375 10.42152,16.60923 10.42152,26.43211 z M 293.88522,188.85376 v -67.40592 c 0,-25.556528 -22.01703,-46.365061 -49.0843,-46.369731 L 117.4263,75.037014 C 113.11858,55.350396 94.618049,40.501666 72.514478,40.501666 c -25.285773,0 -45.858828,19.427447 -45.858828,43.305191 0,23.877743 20.573055,43.305183 45.858828,43.305183 22.103571,0 40.599662,-14.84405 44.911822,-34.535338 l 127.36226,0.0411 c 16.82463,0.005 30.51156,12.937618 30.51156,28.821868 v 70.1109 c -18.09553,5.74149 -31.94565,20.0567 -36.07484,38.19762 -13.10218,3.75309 -24.1657,11.99315 -31.15319,22.82004 l -90.64455,-0.0548 c -4.30772,-19.68662 -22.808255,-34.54001 -44.911826,-34.54001 -25.285773,0 -45.858827,19.42744 -45.858827,43.30518 0,23.87775 20.573054,43.30519 45.858827,43.30519 22.103571,0 40.599656,-14.84405 44.911826,-34.526 l 83.56061,0.0457 c -0.59882,3.06911 -0.93204,6.2386 -0.93204,9.47184 0,3.27433 0.33322,6.48935 0.95136,9.63597 -13.67209,10.97666 -21.68323,27.08821 -21.68323,44.23097 0,13.5447 5.09968,26.68195 14.16908,37.03952 -5.83379,8.94286 -9.20935,19.45429 -9.20935,30.70496 0,10.43859 2.91207,20.24816 7.99729,28.75766 l -74.85839,0.0457 c -4.30772,-19.68663 -22.808254,-34.52602 -44.911825,-34.52602 -25.285773,0 -45.858832,19.42745 -45.858832,43.30519 0,23.87775 20.573059,43.3052 45.858832,43.3052 22.103571,0 40.609535,-14.84406 44.911825,-34.54002 l 90.84729,-0.0548 c 8.43185,6.22481 18.59746,10.43403 29.69067,11.87524 0.0773,22.75116 15.6996,42.10039 37.33957,49.07821 v 70.1786 c 0,15.88775 -13.68571,28.82187 -30.51156,28.82187 l -127.36226,0.0411 c -4.30772,-19.68661 -22.808255,-34.53534 -44.911826,-34.53534 -25.285773,0 -45.858832,19.42744 -45.858832,43.30519 0,23.87774 20.573059,43.30518 45.858832,43.30518 22.103571,0 40.609536,-14.84405 44.911826,-34.53534 l 127.37462,-0.0411 c 27.06355,-0.004 49.08429,-20.81319 49.08429,-46.36973 v -67.40592 c 30.02323,-0.41043 54.31008,-23.58121 54.31008,-52.02833 l 0.01,-218.27712 c -0.01,-27.95446 -24.79374,-51.59989 -54.31998,-52.02834 z M 72.515714,109.57259 c -15.04314,0 -27.279908,-11.555828 -27.279908,-25.760828 -0.0044,-14.205466 12.237265,-25.765503 27.279908,-25.765503 15.042644,0 27.279908,11.555834 27.279908,25.760834 0,14.210129 -12.237264,25.765497 -27.279908,25.765497 z m 0,177.48661 c -15.04314,0 -27.279908,-11.55583 -27.279908,-25.76084 0,-14.205 12.237265,-25.76083 27.279908,-25.76083 15.042644,0 27.279908,11.55583 27.279908,25.76083 0,14.21015 -12.237264,25.76084 -27.279908,25.76084 z m 0,177.49828 c -15.04314,0 -27.279908,-11.55584 -27.279908,-25.76084 0,-14.205 12.237265,-25.76083 27.279908,-25.76083 15.042644,0 27.279908,11.55583 27.279908,25.76083 0,14.205 -12.237264,25.76084 -27.279908,25.76084 z m 0,177.49827 c -15.04314,0 -27.279908,-11.55583 -27.279908,-25.76083 0,-14.205 12.237265,-25.76083 27.279908,-25.76083 15.042644,0 27.279908,11.55583 27.279908,25.76083 0,14.20081 -12.237264,25.76083 -27.279908,25.76083 z M 329.61391,459.22225 c 0,18.70247 -16.73314,34.5085 -36.5434,34.5085 -20.14777,0 -36.5434,-15.47798 -36.5434,-34.5085 v -0.0273 c 12.77331,-1.9473 24.54647,-7.59294 33.88167,-16.38508 3.63642,-3.42482 3.63642,-8.97473 0.0145,-12.40877 -3.62194,-3.43393 -9.50395,-3.43393 -13.14049,-0.0137 -8.23391,7.76164 -19.17728,12.03519 -30.81568,12.03519 -24.04948,0 -43.61744,-18.47365 -43.61744,-41.18863 0,-22.71028 19.56301,-41.1886 43.61744,-41.1886 5.12862,0 9.28662,-3.93102 9.28662,-8.7695 0,-4.84303 -4.16283,-8.76949 -9.28662,-8.76949 -15.56485,0 -29.79698,5.44052 -40.71587,14.38759 -5.11415,-6.78122 -7.86204,-14.85807 -7.86204,-23.40844 0,-9.81843 3.7813,-19.15776 10.40706,-26.43211 3.43836,5.22163 7.87651,9.90051 13.21344,13.79453 1.69506,1.23131 3.68475,1.83323 5.66948,1.83323 2.77682,0 5.52954,-1.172 7.35492,-3.41115 3.13905,-3.83529 2.38566,-9.34411 -1.67097,-12.3037 -9.04998,-6.59875 -14.24202,-16.56721 -14.24202,-27.34856 0,-19.03985 16.40058,-34.52601 36.56194,-34.52601 9.85173,0 19.08951,3.64372 26.01024,10.2608 3.60749,3.44757 9.48949,3.47956 13.1405,0.073 3.65099,-3.40659 3.68475,-8.95651 0.0773,-12.40876 -9.47504,-9.06591 -21.83777,-14.41093 -35.15259,-15.32271 5.47156,-12.64109 18.53936,-21.29652 33.79514,-21.29652 19.46657,0 36.5434,16.12475 36.5434,34.50848 V 459.2182 Z"
     id="path67"
     style="stroke-width:1.20137" />
  <metadata
     id="metadata266">
    <rdf:RDF>
      <cc:Work
         rdf:about="">
        <cc:license
           rdf:resource="http://creativecommons.org/licenses/by-sa/4.0/" />
      </cc:Work>
      <cc:License
         rdf:about="http://creativecommons.org/licenses/by-sa/4.0/">
        <cc:permits
           rdf:resource="http://creativecommons.org/ns#Reproduction" />
        <cc:permits
           rdf:resource="http://creativecommons.org/ns#Distribution" />
        <cc:requires
           rdf:resource="http://creativecommons.org/ns#Notice" />
        <cc:requires
           rdf:resource="http://creativecommons.org/ns#Attribution" />
        <cc:permits
           rdf:resource="http://creativecommons.org/ns#DerivativeWorks" />
        <cc:requires
           rdf:resource="http://creativecommons.org/ns#ShareAlike" />
      </cc:License>
    </rdf:RDF>
  </metadata>
</svg>
